<?xml version="1.0" standalone="no"?>
<!DOCTYPE svg PUBLIC "-//W3C//DTD SVG 20010904//EN"
 "http://www.w3.org/TR/2001/REC-SVG-20010904/DTD/svg10.dtd">
<svg version="1.0" xmlns="http://www.w3.org/2000/svg"
 width="322.000000pt" height="104.000000pt" viewBox="0 0 322.000000 104.000000"
 preserveAspectRatio="xMidYMid meet">

<g transform="translate(0.000000,104.000000) scale(0.100000,-0.100000)"
fill="#000000" stroke="none">
<path d="M264 911 c-51 -24 -108 -90 -124 -144 -8 -29 -10 -113 -8 -258 l3
-216 30 -49 c19 -30 49 -60 79 -79 l49 -30 219 -3 c259 -4 292 3 357 73 59 64
63 88 59 351 l-3 231 -28 41 c-15 23 -46 54 -69 69 l-41 28 -241 3 c-217 2
-245 0 -282 -17z m373 -213 l93 -53 -2 -114 -3 -115 -90 -52 c-49 -29 -94 -53
-99 -54 -5 0 -51 24 -103 53 l-93 52 0 116 0 116 88 51 c48 28 93 52 101 52 8
0 56 -24 108 -52z"/>
<path d="M437 682 l-78 -47 3 -105 3 -104 83 -49 83 -49 87 50 87 51 3 103 2
103 -85 48 c-47 26 -91 47 -97 46 -7 0 -48 -22 -91 -47z m120 -74 c-4 -13 -11
-56 -18 -95 -7 -43 -17 -73 -24 -73 -9 0 -7 24 6 93 10 50 19 93 19 95 0 1 5
2 11 2 7 0 9 -9 6 -22z m-67 -26 c0 -11 -11 -24 -25 -30 -14 -6 -25 -15 -25
-20 0 -5 11 -14 25 -20 22 -10 36 -42 19 -42 -20 0 -84 46 -84 61 0 13 52 54
88 68 1 1 2 -7 2 -17z m140 -14 c22 -13 40 -30 40 -38 0 -13 -72 -60 -92 -60
-21 0 -4 29 22 40 17 7 30 16 30 20 0 4 -13 13 -30 20 -16 7 -30 19 -30 26 0
20 15 17 60 -8z"/>
<path d="M1214 752 c-49 -23 -74 -70 -81 -151 -14 -153 81 -248 213 -212 53
14 92 54 74 76 -16 20 -27 19 -57 -5 -39 -30 -107 -27 -138 6 -46 49 -42 186
6 230 29 26 99 26 129 -1 16 -15 25 -17 38 -9 79 50 -89 110 -184 66z"/>
<path d="M2320 710 c0 -29 -4 -40 -15 -40 -9 0 -15 -9 -15 -25 0 -16 6 -25 15
-25 12 0 15 -15 15 -79 0 -43 5 -92 11 -109 13 -37 55 -57 99 -47 43 9 37 38
-10 45 l-35 5 -3 92 -3 92 33 3 c25 2 34 8 36 26 3 19 -1 22 -32 22 -35 0 -36
1 -36 40 0 38 -2 40 -30 40 -28 0 -30 -2 -30 -40z"/>
<path d="M1595 660 c-36 -24 -45 -25 -45 -5 0 9 -9 15 -25 15 l-25 0 0 -140 0
-140 25 0 c25 0 25 0 25 93 0 85 2 95 24 116 13 12 36 23 52 25 26 3 48 31 37
49 -8 13 -37 7 -68 -13z"/>
<path d="M2085 663 c-20 -11 -30 -12 -33 -4 -2 6 -15 11 -28 11 l-24 0 0 -196
0 -195 28 3 c26 3 27 6 30 66 l3 62 31 -16 c100 -52 187 71 146 208 -21 71
-86 97 -153 61z m89 -55 c10 -14 16 -44 16 -76 0 -43 -5 -58 -25 -77 -27 -28
-42 -30 -80 -13 -24 11 -25 15 -25 88 0 70 2 78 23 88 37 18 74 14 91 -10z"/>
<path d="M2554 661 c-17 -11 -36 -34 -43 -52 -13 -39 -14 -119 -2 -152 36 -93
183 -101 225 -12 20 42 21 137 1 175 -30 58 -120 78 -181 41z m119 -49 c25
-27 31 -92 14 -135 -27 -63 -97 -63 -124 1 -17 42 -11 107 14 134 21 23 75 23
96 0z"/>
<path d="M2922 660 c-39 -24 -42 -24 -42 -5 0 10 -10 15 -30 15 l-30 0 0 -141
0 -140 28 3 27 3 5 100 5 100 37 20 c63 34 72 19 76 -114 l3 -112 27 3 c27 3
27 3 30 93 2 50 0 105 -3 123 -13 68 -69 91 -133 52z"/>
<path d="M1690 663 c0 -4 20 -60 45 -123 48 -123 51 -139 34 -173 -16 -29 -28
-37 -60 -37 -22 0 -39 -15 -39 -35 0 -12 66 -15 91 -5 35 15 50 42 117 211 70
177 69 171 37 167 -24 -3 -31 -13 -59 -88 -18 -47 -37 -85 -41 -85 -4 0 -22
38 -40 85 -28 75 -35 85 -59 88 -14 2 -26 0 -26 -5z"/>
</g>
</svg>
